mtllib Star_01.mtl
o pCylinder3
v -0.029564 0.132915 0.000100
v 0.000137 0.091467 0.024654
v 0.000839 0.198458 0.000097
v -0.101402 0.125200 0.000107
v -0.000203 0.040480 0.000097
v -0.063325 0.005325 0.000103
v 0.048522 0.075392 0.000092
v 0.062450 0.004496 0.000090
v 0.030375 0.132519 0.000094
v 0.102106 0.123858 0.000087
v 0.000132 0.091467 -0.024461
v -0.048462 0.076031 0.000101
vt 0.373591 0.935591
vt 0.500000 0.837500
vt 0.400000 0.500470
vt 0.450000 0.500470
vt 0.425000 0.500470
vt 0.548284 0.695147
vt 0.500000 0.500470
vt 0.656250 0.843750
vt 0.550000 0.500470
vt 0.548284 0.992353
vt 0.600000 0.500470
vt 0.500000 0.150000
vt 0.475000 0.500470
vt 0.373591 0.248091
vt 0.575000 0.500470
vt 0.656250 0.156250
vt 0.373591 0.751909
vt 0.375000 0.500470
vt 0.525000 0.500470
vt 0.373591 0.064409
vt 0.548284 0.304853
vt 0.625000 0.500470
vt 0.548284 0.007647
vn -0.2526 0.3527 0.9010
vn -0.4391 0.2037 0.8750
vn -0.0516 0.4814 0.8750
vn -0.0028 -0.4339 0.9010
vn 0.2357 -0.4230 0.8750
vn 0.4119 -0.1368 0.9009
vn 0.4751 0.0933 0.8749
vn 0.2575 0.3494 0.9009
vn 0.2574 0.3494 0.9009
vn 0.0581 0.4807 0.8750
vn -0.2528 0.3527 -0.9009
vn -0.4393 0.2037 -0.8749
vn -0.4137 -0.1314 -0.9009
vn -0.3296 -0.3548 -0.8749
vn -0.4739 0.0996 -0.8749
vn 0.4117 -0.1368 -0.9010
vn 0.4750 0.0933 -0.8750
vn 0.3247 -0.3591 -0.8750
vn -0.4135 -0.1314 0.9010
vn -0.3294 -0.3547 0.8750
vn -0.4737 0.0996 0.8750
vn 0.4419 0.1979 0.8749
vn 0.3249 -0.3591 0.8750
vn -0.2410 -0.4198 0.8750
vn -0.0518 0.4814 -0.8750
vn -0.0029 -0.4339 -0.9009
vn 0.2355 -0.4230 -0.8750
vn -0.0030 -0.4339 -0.9009
vn -0.2412 -0.4198 -0.8750
vn 0.2573 0.3494 -0.9010
vn 0.0580 0.4807 -0.8750
vn 0.4418 0.1979 -0.8750
usemtl blinn2SG
s 1
f 1/1/1 2/2/1 3/3/2
f 4/4/3 2/2/1 1/5/1
f 5/6/4 2/2/4 6/7/5
f 7/8/6 2/2/6 8/9/7
f 9/10/8 2/2/9 10/11/10
f 1/5/11 3/3/12 11/12/11
f 12/13/13 4/4/14 11/12/13
f 11/12/13 6/7/15 12/14/13
f 7/15/16 8/9/17 11/12/16
f 11/12/16 10/11/18 7/16/16
f 12/17/19 2/2/19 4/4/20
f 2/2/19 12/13/19 6/7/21
f 2/2/9 9/18/8 3/3/22
f 2/2/6 7/15/6 10/11/23
f 2/2/4 5/19/4 8/9/24
f 4/4/25 1/20/11 11/12/11
f 5/19/26 6/7/27 11/12/28
f 8/9/29 5/21/26 11/12/28
f 9/22/30 10/11/31 11/12/30
f 3/3/32 9/23/30 11/12/30
